<svg width="48" height="48" viewBox="0 0 48 48" fill="none" xmlns="http://www.w3.org/2000/svg">
  <!-- Bee body segments -->
  <ellipse cx="24" cy="24" rx="16" ry="9" fill="#FFD700" stroke="#222" strokeWidth="1.5"/>
  
  <!-- Body segments/stripes -->
  <ellipse cx="24" cy="24" rx="14" ry="7" fill="none" stroke="#222" strokeWidth="2.5"/>
  <ellipse cx="24" cy="24" rx="10" ry="5" fill="none" stroke="#222" strokeWidth="2.5"/>
  <ellipse cx="24" cy="24" rx="6" ry="3" fill="none" stroke="#222" strokeWidth="2.5"/>
  
  <!-- Bee head -->
  <circle cx="24" cy="15" r="7" fill="#FFD700" stroke="#222" strokeWidth="1.5"/>
  
  <!-- Eyes -->
  <circle cx="21" cy="13" r="2" fill="#222"/>
  <circle cx="27" cy="13" r="2" fill="#222"/>
  <circle cx="21.5" cy="12.5" r="0.8" fill="#fff"/>
  <circle cx="27.5" cy="12.5" r="0.8" fill="#fff"/>
  <circle cx="21.8" cy="12.2" r="0.3" fill="#000"/>
  <circle cx="27.8" cy="12.2" r="0.3" fill="#000"/>
  
  <!-- Antennae -->
  <path d="M20 8 Q18 6 16 7" stroke="#222" strokeWidth="1.2" fill="none" strokeLinecap="round"/>
  <path d="M28 8 Q30 6 32 7" stroke="#222" strokeWidth="1.2" fill="none" strokeLinecap="round"/>
  <circle cx="16" cy="7" r="0.8" fill="#222"/>
  <circle cx="32" cy="7" r="0.8" fill="#222"/>
  
  <!-- Wings - more detailed -->
  <ellipse cx="18" cy="18" rx="4" ry="8" fill="#87CEEB" stroke="#222" strokeWidth="0.8" opacity="0.9"/>
  <ellipse cx="30" cy="18" rx="4" ry="8" fill="#87CEEB" stroke="#222" strokeWidth="0.8" opacity="0.9"/>
  <!-- Wing details -->
  <ellipse cx="18" cy="18" rx="2.5" ry="5" fill="none" stroke="#222" strokeWidth="0.5" opacity="0.6"/>
  <ellipse cx="30" cy="18" rx="2.5" ry="5" fill="none" stroke="#222" strokeWidth="0.5" opacity="0.6"/>
  
  <!-- Stinger -->
  <path d="M24 33 L24 38" stroke="#222" strokeWidth="2" strokeLinecap="round"/>
  <path d="M22 36 L24 38 L26 36" stroke="#222" strokeWidth="1.5" fill="none"/>
  
  <!-- Legs - more detailed -->
  <path d="M18 26 L16 29" stroke="#222" strokeWidth="1.2" strokeLinecap="round"/>
  <path d="M30 26 L32 29" stroke="#222" strokeWidth="1.2" strokeLinecap="round"/>
  <path d="M20 28 L18 31" stroke="#222" strokeWidth="1.2" strokeLinecap="round"/>
  <path d="M28 28 L30 31" stroke="#222" strokeWidth="1.2" strokeLinecap="round"/>
  <path d="M22 30 L20 33" stroke="#222" strokeWidth="1.2" strokeLinecap="round"/>
  <path d="M26 30 L28 33" stroke="#222" strokeWidth="1.2" strokeLinecap="round"/>
  
  <!-- Leg joints -->
  <circle cx="16" cy="29" r="0.8" fill="#222"/>
  <circle cx="32" cy="29" r="0.8" fill="#222"/>
  <circle cx="18" cy="31" r="0.8" fill="#222"/>
  <circle cx="30" cy="31" r="0.8" fill="#222"/>
  <circle cx="20" cy="33" r="0.8" fill="#222"/>
  <circle cx="28" cy="33" r="0.8" fill="#222"/>
  
  <!-- Mouth parts -->
  <path d="M22 18 L24 20 L26 18" stroke="#222" strokeWidth="1" fill="none" strokeLinecap="round"/>
  
  <!-- Hairs on body -->
  <path d="M16 20 L14 19" stroke="#222" strokeWidth="0.5" strokeLinecap="round"/>
  <path d="M32 20 L34 19" stroke="#222" strokeWidth="0.5" strokeLinecap="round"/>
  <path d="M16 24 L14 23" stroke="#222" strokeWidth="0.5" strokeLinecap="round"/>
  <path d="M32 24 L34 23" stroke="#222" strokeWidth="0.5" strokeLinecap="round"/>
  <path d="M16 28 L14 27" stroke="#222" strokeWidth="0.5" strokeLinecap="round"/>
  <path d="M32 28 L34 27" stroke="#222" strokeWidth="0.5" strokeLinecap="round"/>
</svg> 