<svg width="60" height="60" viewBox="0 0 60 60" fill="none" xmlns="http://www.w3.org/2000/svg">
  <!-- Main nest structure -->
  <ellipse cx="30" cy="45" rx="22" ry="12" fill="#8B4513" stroke="#654321" strokeWidth="2"/>
  
  <!-- Nest inner layers -->
  <ellipse cx="30" cy="45" rx="18" ry="9" fill="#A0522D" stroke="#654321" strokeWidth="1"/>
  <ellipse cx="30" cy="45" rx="14" ry="6" fill="#CD853F" stroke="#654321" strokeWidth="1"/>
  <ellipse cx="30" cy="45" rx="10" ry="4" fill="#DEB887" stroke="#654321" strokeWidth="1"/>
  
  <!-- Nest center -->
  <ellipse cx="30" cy="45" rx="6" ry="2" fill="#F5DEB3"/>
  
  <!-- Twigs and branches -->
  <path d="M10 40 Q15 35 20 38" stroke="#654321" strokeWidth="2" fill="none"/>
  <path d="M50 40 Q45 35 40 38" stroke="#654321" strokeWidth="2" fill="none"/>
  <path d="M12 42 Q18 37 25 40" stroke="#654321" strokeWidth="1.5" fill="none"/>
  <path d="M48 42 Q42 37 35 40" stroke="#654321" strokeWidth="1.5" fill="none"/>
  <path d="M15 44 Q22 39 28 42" stroke="#654321" strokeWidth="1" fill="none"/>
  <path d="M45 44 Q38 39 32 42" stroke="#654321" strokeWidth="1" fill="none"/>
  
  <!-- Small twigs -->
  <path d="M8 43 L12 41" stroke="#8B4513" strokeWidth="1" strokeLinecap="round"/>
  <path d="M52 43 L48 41" stroke="#8B4513" strokeWidth="1" strokeLinecap="round"/>
  <path d="M10 46 L14 44" stroke="#8B4513" strokeWidth="1" strokeLinecap="round"/>
  <path d="M50 46 L46 44" stroke="#8B4513" strokeWidth="1" strokeLinecap="round"/>
  
  <!-- Nest texture details -->
  <circle cx="25" cy="42" r="0.5" fill="#654321"/>
  <circle cx="35" cy="42" r="0.5" fill="#654321"/>
  <circle cx="28" cy="44" r="0.5" fill="#654321"/>
  <circle cx="32" cy="44" r="0.5" fill="#654321"/>
  <circle cx="30" cy="46" r="0.5" fill="#654321"/>
  
  <!-- Nest entrance shadow -->
  <ellipse cx="30" cy="45" rx="8" ry="3" fill="none" stroke="#654321" strokeWidth="1" opacity="0.3"/>
</svg> 